<svg xmlns:xlink="http://www.w3.org/1999/xlink" xmlns="http://www.w3.org/2000/svg" class="w-5 h-5 mr-3" fill="none" stroke="currentColor" viewBox="0 0 24 24" width="24"  height="24" >
                                <path stroke-linecap="round" stroke-linejoin="round" stroke-width="2px" d="M4 6a2 2 0 012-2h2a2 2 0 012 2v2a2 2 0 01-2 2H6a2 2 0 01-2-2V6z" stroke="#1F2937" fill="none"></path>
                                <path stroke-linecap="round" stroke-linejoin="round" stroke-width="2px" d="M14 6a2 2 0 012-2h2a2 2 0 012 2v2a2 2 0 01-2 2h-2a2 2 0 01-2-2V6z" stroke="#1F2937" fill="none"></path>
                                <path stroke-linecap="round" stroke-linejoin="round" stroke-width="2px" d="M4 16a2 2 0 012-2h2a2 2 0 012 2v2a2 2 0 01-2 2H6a2 2 0 01-2-2v-2z" stroke="#1F2937" fill="none"></path>
                                <path stroke-linecap="round" stroke-linejoin="round" stroke-width="2px" d="M14 16a2 2 0 012-2h2a2 2 0 012 2v2a2 2 0 01-2 2h-2a2 2 0 01-2-2v-2z" stroke="#1F2937" fill="none"></path>
                            </svg>